<svg width="24" height="24" viewBox="0 0 24 24" fill="none" xmlns="http://www.w3.org/2000/svg">
<path d="M21.92 11.62C21.8724 11.4973 21.801 11.3851 21.71 11.29L19.21 8.79C19.0217 8.6017 18.7663 8.49591 18.5 8.49591C18.2337 8.49591 17.9783 8.6017 17.79 8.79C17.6017 8.97831 17.4959 9.2337 17.4959 9.5C17.4959 9.7663 17.6017 10.0217 17.79 10.21L18.59 11H14C13.7348 11 13.4804 11.1054 13.2929 11.2929C13.1053 11.4804 13 11.7348 13 12C13 12.2652 13.1053 12.5196 13.2929 12.7071C13.4804 12.8946 13.7348 13 14 13H18.59L17.79 13.79C17.6963 13.883 17.6219 13.9936 17.5711 14.1154C17.5203 14.2373 17.4942 14.368 17.4942 14.5C17.4942 14.632 17.5203 14.7627 17.5711 14.8846C17.6219 15.0064 17.6963 15.117 17.79 15.21C17.883 15.3037 17.9936 15.3781 18.1154 15.4289C18.2373 15.4797 18.368 15.5058 18.5 15.5058C18.632 15.5058 18.7627 15.4797 18.8846 15.4289C19.0064 15.3781 19.117 15.3037 19.21 15.21L21.71 12.71C21.801 12.6149 21.8724 12.5028 21.92 12.38C22.02 12.1365 22.02 11.8635 21.92 11.62ZM9.99999 11H5.40999L6.20999 10.21C6.39829 10.0217 6.50408 9.7663 6.50408 9.5C6.50408 9.2337 6.39829 8.97831 6.20999 8.79C6.02168 8.6017 5.76629 8.49591 5.49999 8.49591C5.23369 8.49591 4.97829 8.6017 4.78999 8.79L2.28999 11.29C2.19895 11.3851 2.12758 11.4973 2.07999 11.62C1.97997 11.8635 1.97997 12.1365 2.07999 12.38C2.12758 12.5028 2.19895 12.6149 2.28999 12.71L4.78999 15.21C4.88295 15.3037 4.99355 15.3781 5.11541 15.4289C5.23727 15.4797 5.36798 15.5058 5.49999 15.5058C5.632 15.5058 5.76271 15.4797 5.88456 15.4289C6.00642 15.3781 6.11702 15.3037 6.20999 15.21C6.30372 15.117 6.37811 15.0064 6.42888 14.8846C6.47965 14.7627 6.50579 14.632 6.50579 14.5C6.50579 14.368 6.47965 14.2373 6.42888 14.1154C6.37811 13.9936 6.30372 13.883 6.20999 13.79L5.40999 13H9.99999C10.2652 13 10.5196 12.8946 10.7071 12.7071C10.8946 12.5196 11 12.2652 11 12C11 11.7348 10.8946 11.4804 10.7071 11.2929C10.5196 11.1054 10.2652 11 9.99999 11Z" fill="black"/>
</svg>
