<svg width="24" height="24" viewBox="0 0 24 24" fill="none" xmlns="http://www.w3.org/2000/svg">
<path d="M20.92 16.62C20.8724 16.4972 20.801 16.3851 20.71 16.29L17.71 13.29C17.5217 13.1017 17.2663 12.9959 17 12.9959C16.7337 12.9959 16.4783 13.1017 16.29 13.29C16.1017 13.4783 15.9959 13.7337 15.9959 14C15.9959 14.2663 16.1017 14.5217 16.29 14.71L17.59 16H9C8.73479 16 8.48043 15.8946 8.2929 15.7071C8.10536 15.5196 8 15.2652 8 15V6.40999L9.29 7.70999C9.38297 7.80372 9.49357 7.87811 9.61543 7.92888C9.73728 7.97965 9.86799 8.00579 10 8.00579C10.132 8.00579 10.2627 7.97965 10.3846 7.92888C10.5064 7.87811 10.617 7.80372 10.71 7.70999C10.8037 7.61702 10.8781 7.50642 10.9289 7.38456C10.9797 7.26271 11.0058 7.132 11.0058 6.99999C11.0058 6.86798 10.9797 6.73727 10.9289 6.61541C10.8781 6.49355 10.8037 6.38295 10.71 6.28999L7.71 3.28999C7.6149 3.19895 7.50275 3.12758 7.38 3.07999C7.13654 2.97997 6.86346 2.97997 6.62 3.07999C6.49725 3.12758 6.38511 3.19895 6.29 3.28999L3.29 6.28999C3.1017 6.47829 2.99591 6.73369 2.99591 6.99999C2.99591 7.13185 3.02188 7.26242 3.07234 7.38424C3.1228 7.50606 3.19676 7.61675 3.29 7.70999C3.38324 7.80323 3.49393 7.87719 3.61575 7.92765C3.73758 7.97811 3.86814 8.00408 4 8.00408C4.2663 8.00408 4.5217 7.89829 4.71 7.70999L6 6.40999V15C6 15.7956 6.31607 16.5587 6.87868 17.1213C7.44129 17.6839 8.20435 18 9 18H17.59L16.29 19.29C16.1963 19.383 16.1219 19.4936 16.0711 19.6154C16.0203 19.7373 15.9942 19.868 15.9942 20C15.9942 20.132 16.0203 20.2627 16.0711 20.3846C16.1219 20.5064 16.1963 20.617 16.29 20.71C16.383 20.8037 16.4936 20.8781 16.6154 20.9289C16.7373 20.9796 16.868 21.0058 17 21.0058C17.132 21.0058 17.2627 20.9796 17.3846 20.9289C17.5064 20.8781 17.617 20.8037 17.71 20.71L20.71 17.71C20.801 17.6149 20.8724 17.5027 20.92 17.38C21.02 17.1365 21.02 16.8635 20.92 16.62Z" fill="black"/>
</svg>
