<svg width="24" height="24" viewBox="0 0 24 24" fill="none" xmlns="http://www.w3.org/2000/svg">
<path d="M15.29 16.29L13 18.59V5.40999L15.29 7.70999C15.383 7.80372 15.4936 7.87811 15.6154 7.92888C15.7373 7.97965 15.868 8.00579 16 8.00579C16.132 8.00579 16.2627 7.97965 16.3846 7.92888C16.5064 7.87811 16.617 7.80372 16.71 7.70999C16.8037 7.61702 16.8781 7.50642 16.9289 7.38456C16.9797 7.26271 17.0058 7.132 17.0058 6.99999C17.0058 6.86798 16.9797 6.73727 16.9289 6.61541C16.8781 6.49355 16.8037 6.38295 16.71 6.28999L12.71 2.28999C12.6149 2.19895 12.5028 2.12758 12.38 2.07999C12.1365 1.97997 11.8635 1.97997 11.62 2.07999C11.4973 2.12758 11.3851 2.19895 11.29 2.28999L7.29 6.28999C7.19676 6.38323 7.1228 6.49392 7.07234 6.61574C7.02188 6.73756 6.99591 6.86813 6.99591 6.99999C6.99591 7.13185 7.02188 7.26242 7.07234 7.38424C7.1228 7.50606 7.19676 7.61675 7.29 7.70999C7.38324 7.80323 7.49393 7.87719 7.61575 7.92765C7.73758 7.97811 7.86814 8.00408 8 8.00408C8.13186 8.00408 8.26243 7.97811 8.38425 7.92765C8.50607 7.87719 8.61676 7.80323 8.71 7.70999L11 5.40999V18.59L8.71 16.29C8.5217 16.1017 8.2663 15.9959 8 15.9959C7.7337 15.9959 7.47831 16.1017 7.29 16.29C7.1017 16.4783 6.99591 16.7337 6.99591 17C6.99591 17.2663 7.1017 17.5217 7.29 17.71L11.29 21.71C11.3851 21.801 11.4973 21.8724 11.62 21.92C11.7397 21.9729 11.8691 22.0002 12 22.0002C12.1309 22.0002 12.2603 21.9729 12.38 21.92C12.5028 21.8724 12.6149 21.801 12.71 21.71L16.71 17.71C16.8983 17.5217 17.0041 17.2663 17.0041 17C17.0041 16.7337 16.8983 16.4783 16.71 16.29C16.6168 16.1967 16.5061 16.1228 16.3843 16.0723C16.2624 16.0219 16.1319 15.9959 16 15.9959C15.7337 15.9959 15.4783 16.1017 15.29 16.29Z" fill="black"/>
</svg>
