<svg width="24" height="24" viewBox="0 0 24 24" fill="none" xmlns="http://www.w3.org/2000/svg">
<path d="M12.5 16.92H11.73L12.12 16.25C12.2526 16.0193 12.2881 15.7453 12.2187 15.4884C12.1493 15.2315 11.9807 15.0127 11.75 14.88C11.5192 14.7474 11.2453 14.7119 10.9883 14.7813C10.7314 14.8507 10.5126 15.0193 10.38 15.25L9.99998 15.92L9.61998 15.25C9.48737 15.0193 9.26853 14.8507 9.0116 14.7813C8.75468 14.7119 8.48071 14.7474 8.24998 14.88C8.01924 15.0127 7.85063 15.2315 7.78124 15.4884C7.71185 15.7453 7.74737 16.0193 7.87998 16.25L8.26998 16.92H7.49998C7.23476 16.92 6.9804 17.0254 6.79287 17.2129C6.60533 17.4005 6.49998 17.6548 6.49998 17.92C6.49998 18.1853 6.60533 18.4396 6.79287 18.6272C6.9804 18.8147 7.23476 18.92 7.49998 18.92H8.26998L7.87998 19.58C7.74737 19.8108 7.71185 20.0847 7.78124 20.3417C7.85063 20.5986 8.01924 20.8174 8.24998 20.95C8.48071 21.0827 8.75468 21.1182 9.0116 21.0488C9.26853 20.9794 9.48737 20.8108 9.61998 20.58L9.99998 19.92L10.38 20.58C10.4456 20.6943 10.5332 20.7945 10.6375 20.8749C10.7419 20.9553 10.8611 21.0144 10.9883 21.0488C11.1156 21.0831 11.2483 21.0921 11.379 21.0752C11.5097 21.0582 11.6357 21.0157 11.75 20.95C11.8642 20.8844 11.9644 20.7969 12.0448 20.6925C12.1253 20.5881 12.1844 20.4689 12.2187 20.3417C12.2531 20.2145 12.262 20.0817 12.2451 19.951C12.2282 19.8204 12.1856 19.6943 12.12 19.58L11.73 18.92H12.5C12.7652 18.92 13.0195 18.8147 13.2071 18.6272C13.3946 18.4396 13.5 18.1853 13.5 17.92C13.5 17.6548 13.3946 17.4005 13.2071 17.2129C13.0195 17.0254 12.7652 16.92 12.5 16.92ZM21 7.92004H20.2C20.0966 7.47134 19.921 7.04241 19.68 6.65004L20.24 6.09004C20.4038 5.89874 20.4894 5.65267 20.4797 5.40099C20.47 5.14931 20.3656 4.91058 20.1875 4.73248C20.0094 4.55439 19.7707 4.45005 19.519 4.44033C19.2674 4.43061 19.0213 4.51622 18.83 4.68004L18.27 5.24004C17.8776 4.99906 17.4487 4.82343 17 4.72004V3.92004C17 3.65483 16.8946 3.40047 16.7071 3.21294C16.5195 3.0254 16.2652 2.92004 16 2.92004C15.7348 2.92004 15.4804 3.0254 15.2929 3.21294C15.1053 3.40047 15 3.65483 15 3.92004V4.72004C14.5539 4.82186 14.128 4.99762 13.74 5.24004L13.17 4.68004C12.9787 4.51622 12.7326 4.43061 12.4809 4.44033C12.2292 4.45005 11.9905 4.55439 11.8124 4.73248C11.6343 4.91058 11.53 5.14931 11.5203 5.40099C11.5105 5.65267 11.5961 5.89874 11.76 6.09004L12.32 6.65004C12.23 6.81004 12.16 6.98004 12.08 7.14004C11.5658 6.99491 11.0342 6.92089 10.5 6.92004C9.06623 6.91743 7.67895 7.4283 6.58934 8.36016C5.49972 9.29202 4.77981 10.5833 4.55998 12C3.8173 12.2105 3.16442 12.6593 2.70184 13.2773C2.23926 13.8953 1.99265 14.6482 1.99998 15.42C2.00035 15.963 2.12811 16.4982 2.373 16.9828C2.61789 17.4674 2.97307 17.8877 3.40998 18.21C3.51489 18.2975 3.63659 18.3625 3.76759 18.4011C3.89859 18.4397 4.0361 18.451 4.17166 18.4344C4.30721 18.4178 4.43793 18.3737 4.55576 18.3046C4.67358 18.2356 4.77602 18.1431 4.85675 18.033C4.93748 17.9228 4.99479 17.7973 5.02515 17.6642C5.05552 17.531 5.05829 17.3931 5.03329 17.2588C5.0083 17.1246 4.95607 16.9968 4.87982 16.8835C4.80358 16.7702 4.70494 16.6738 4.58998 16.6C4.40591 16.4635 4.25659 16.2855 4.15409 16.0805C4.05159 15.8755 3.9988 15.6492 3.99998 15.42C3.99998 15.0222 4.15801 14.6407 4.43932 14.3594C4.72062 14.0781 5.10215 13.92 5.49998 13.92C5.76519 13.92 6.01955 13.8147 6.20708 13.6272C6.39462 13.4396 6.49998 13.1853 6.49998 12.92C6.50426 11.9757 6.8425 11.0634 7.45481 10.3445C8.06713 9.62563 8.91403 9.14655 9.84563 8.99208C10.7772 8.83762 11.7334 9.01772 12.545 9.50051C13.3566 9.98331 13.9711 10.7377 14.28 11.63C14.3386 11.8 14.442 11.951 14.5793 12.0672C14.7166 12.1833 14.8826 12.2603 15.06 12.29C15.5571 12.372 16.0143 12.613 16.363 12.9767C16.7116 13.3405 16.933 13.8075 16.9938 14.3077C17.0546 14.8079 16.9517 15.3143 16.7004 15.751C16.4491 16.1878 16.063 16.5313 15.6 16.73C15.4789 16.7822 15.3693 16.8579 15.2776 16.9526C15.1858 17.0473 15.1137 17.1592 15.0654 17.2819C15.017 17.4045 14.9934 17.5356 14.9959 17.6674C14.9985 17.7992 15.027 17.9293 15.08 18.05C15.158 18.2289 15.2867 18.381 15.4502 18.4877C15.6137 18.5943 15.8048 18.6507 16 18.65C16.1383 18.6502 16.275 18.6194 16.4 18.56C17.1775 18.2212 17.8383 17.6615 18.3005 16.9504C18.7628 16.2393 19.006 15.4081 19 14.56C18.998 14.0259 18.8962 13.4968 18.7 13L18.83 13.13C19.0162 13.3148 19.2676 13.4189 19.53 13.42C19.6616 13.4208 19.792 13.3956 19.9139 13.3458C20.0357 13.2961 20.1465 13.2227 20.24 13.13C20.3337 13.0371 20.4081 12.9265 20.4589 12.8046C20.5096 12.6828 20.5358 12.5521 20.5358 12.42C20.5358 12.288 20.5096 12.1573 20.4589 12.0355C20.4081 11.9136 20.3337 11.803 20.24 11.71L19.68 11.15C19.9208 10.7612 20.0964 10.3356 20.2 9.89004H21C21.2652 9.89004 21.5195 9.78469 21.7071 9.59715C21.8946 9.40961 22 9.15526 22 8.89004C22 8.62483 21.8946 8.37047 21.7071 8.18294C21.5195 7.9954 21.2652 7.89004 21 7.89004V7.92004ZM17.66 10.56C17.4884 10.7342 17.2846 10.8735 17.06 10.97C16.7326 10.7506 16.3757 10.5789 16 10.46C15.5329 9.46076 14.7993 8.60958 13.88 8.00004C13.9866 7.73917 14.1428 7.50145 14.34 7.30004C14.788 6.8825 15.3776 6.65033 15.99 6.65033C16.6024 6.65033 17.192 6.8825 17.64 7.30004C18.0729 7.73807 18.3158 8.32914 18.3158 8.94504C18.3158 9.56095 18.0729 10.152 17.64 10.59L17.66 10.56Z" fill="black"/>
</svg>
