<svg width="24" height="24" viewBox="0 0 24 24" fill="none" xmlns="http://www.w3.org/2000/svg">
<path d="M12 17C11.8022 17 11.6089 17.0587 11.4444 17.1685C11.28 17.2784 11.1518 17.4346 11.0761 17.6173C11.0004 17.8001 10.9806 18.0011 11.0192 18.1951C11.0578 18.3891 11.153 18.5673 11.2929 18.7071C11.4327 18.847 11.6109 18.9422 11.8049 18.9808C11.9989 19.0194 12.1999 18.9996 12.3827 18.9239C12.5654 18.8482 12.7216 18.72 12.8315 18.5556C12.9413 18.3911 13 18.1978 13 18C13 17.7348 12.8946 17.4804 12.7071 17.2929C12.5196 17.1054 12.2652 17 12 17ZM7.99999 11C7.80221 11 7.60887 11.0587 7.44442 11.1685C7.27997 11.2784 7.1518 11.4346 7.07611 11.6173C7.00042 11.8001 6.98062 12.0011 7.0192 12.1951C7.05779 12.3891 7.15303 12.5673 7.29288 12.7071C7.43274 12.847 7.61092 12.9422 7.8049 12.9808C7.99888 13.0194 8.19995 12.9996 8.38267 12.9239C8.5654 12.8482 8.72158 12.72 8.83146 12.5556C8.94134 12.3911 8.99999 12.1978 8.99999 12C8.99999 11.7348 8.89463 11.4804 8.7071 11.2929C8.51956 11.1054 8.26521 11 7.99999 11ZM12 13C11.8022 13 11.6089 13.0587 11.4444 13.1685C11.28 13.2784 11.1518 13.4346 11.0761 13.6173C11.0004 13.8001 10.9806 14.0011 11.0192 14.1951C11.0578 14.3891 11.153 14.5673 11.2929 14.7071C11.4327 14.847 11.6109 14.9422 11.8049 14.9808C11.9989 15.0194 12.1999 14.9996 12.3827 14.9239C12.5654 14.8482 12.7216 14.72 12.8315 14.5556C12.9413 14.3911 13 14.1978 13 14C13 13.7348 12.8946 13.4804 12.7071 13.2929C12.5196 13.1054 12.2652 13 12 13ZM7.99999 19C7.80221 19 7.60887 19.0587 7.44442 19.1685C7.27997 19.2784 7.1518 19.4346 7.07611 19.6173C7.00042 19.8001 6.98062 20.0011 7.0192 20.1951C7.05779 20.3891 7.15303 20.5673 7.29288 20.7071C7.43274 20.847 7.61092 20.9422 7.8049 20.9808C7.99888 21.0194 8.19995 20.9996 8.38267 20.9239C8.5654 20.8482 8.72158 20.72 8.83146 20.5556C8.94134 20.3911 8.99999 20.1978 8.99999 20C8.99999 19.7348 8.89463 19.4804 8.7071 19.2929C8.51956 19.1054 8.26521 19 7.99999 19ZM7.99999 15C7.80221 15 7.60887 15.0587 7.44442 15.1685C7.27997 15.2784 7.1518 15.4346 7.07611 15.6173C7.00042 15.8001 6.98062 16.0011 7.0192 16.1951C7.05779 16.3891 7.15303 16.5673 7.29288 16.7071C7.43274 16.847 7.61092 16.9422 7.8049 16.9808C7.99888 17.0194 8.19995 16.9996 8.38267 16.9239C8.5654 16.8482 8.72158 16.72 8.83146 16.5556C8.94134 16.3911 8.99999 16.1978 8.99999 16C8.99999 15.7348 8.89463 15.4804 8.7071 15.2929C8.51956 15.1054 8.26521 15 7.99999 15ZM16 15C15.8022 15 15.6089 15.0587 15.4444 15.1685C15.28 15.2784 15.1518 15.4346 15.0761 15.6173C15.0004 15.8001 14.9806 16.0011 15.0192 16.1951C15.0578 16.3891 15.153 16.5673 15.2929 16.7071C15.4327 16.847 15.6109 16.9422 15.8049 16.9808C15.9989 17.0194 16.1999 16.9996 16.3827 16.9239C16.5654 16.8482 16.7216 16.72 16.8315 16.5556C16.9413 16.3911 17 16.1978 17 16C17 15.7348 16.8946 15.4804 16.7071 15.2929C16.5196 15.1054 16.2652 15 16 15ZM12 9.00002C11.8022 9.00002 11.6089 9.05867 11.4444 9.16855C11.28 9.27843 11.1518 9.43461 11.0761 9.61733C11.0004 9.80006 10.9806 10.0011 11.0192 10.1951C11.0578 10.3891 11.153 10.5673 11.2929 10.7071C11.4327 10.847 11.6109 10.9422 11.8049 10.9808C11.9989 11.0194 12.1999 10.9996 12.3827 10.9239C12.5654 10.8482 12.7216 10.72 12.8315 10.5556C12.9413 10.3911 13 10.1978 13 10C13 9.7348 12.8946 9.48045 12.7071 9.29291C12.5196 9.10537 12.2652 9.00002 12 9.00002ZM16 11C15.8022 11 15.6089 11.0587 15.4444 11.1685C15.28 11.2784 15.1518 11.4346 15.0761 11.6173C15.0004 11.8001 14.9806 12.0011 15.0192 12.1951C15.0578 12.3891 15.153 12.5673 15.2929 12.7071C15.4327 12.847 15.6109 12.9422 15.8049 12.9808C15.9989 13.0194 16.1999 12.9996 16.3827 12.9239C16.5654 12.8482 16.7216 12.72 16.8315 12.5556C16.9413 12.3911 17 12.1978 17 12C17 11.7348 16.8946 11.4804 16.7071 11.2929C16.5196 11.1054 16.2652 11 16 11ZM18.42 6.22002C17.809 4.81602 16.7545 3.65109 15.4181 2.90374C14.0816 2.15639 12.537 1.86785 11.021 2.08233C9.50486 2.2968 8.10091 3.00247 7.02424 4.09119C5.94757 5.17991 5.25758 6.59163 5.05999 8.11002C4.1874 8.32098 3.41115 8.81934 2.85612 9.52493C2.30108 10.2305 1.99954 11.1023 1.99999 12C1.9982 12.5664 2.11674 13.1268 2.34774 13.644C2.57875 14.1611 2.91696 14.6233 3.33999 15C3.43735 15.0935 3.55263 15.1664 3.67889 15.2141C3.80515 15.2619 3.93977 15.2836 4.07464 15.2779C4.20951 15.2723 4.34185 15.2394 4.46366 15.1812C4.58547 15.123 4.69425 15.0408 4.78343 14.9394C4.8726 14.8381 4.94034 14.7198 4.98256 14.5915C5.02477 14.4633 5.04059 14.3279 5.02906 14.1934C5.01752 14.0589 4.97888 13.9281 4.91545 13.8089C4.85202 13.6898 4.76512 13.5847 4.65999 13.5C4.45029 13.3108 4.28306 13.0793 4.1693 12.8207C4.05554 12.5622 3.99784 12.2825 3.99999 12C3.99999 11.4696 4.2107 10.9609 4.58578 10.5858C4.96085 10.2107 5.46956 10 5.99999 10C6.26521 10 6.51956 9.89466 6.7071 9.70712C6.89463 9.51959 6.99999 9.26523 6.99999 9.00002C7.00254 7.81729 7.42428 6.67377 8.19026 5.7726C8.95624 4.87143 10.0169 4.27097 11.1837 4.07789C12.3506 3.88481 13.5481 4.11162 14.5636 4.71803C15.579 5.32443 16.3466 6.27116 16.73 7.39002C16.7872 7.56186 16.8899 7.71495 17.0273 7.83295C17.1647 7.95095 17.3315 8.02943 17.51 8.06002C18.2042 8.17976 18.834 8.53995 19.2893 9.07748C19.7446 9.61502 19.9962 10.2956 20 11C20.0153 11.7363 19.7508 12.451 19.26 13C19.1003 13.1988 19.0227 13.4511 19.0428 13.7053C19.063 13.9595 19.1795 14.1963 19.3685 14.3675C19.5575 14.5386 19.8048 14.6311 20.0597 14.626C20.3146 14.6209 20.558 14.5186 20.74 14.34C21.2908 13.7106 21.6749 12.953 21.8571 12.1367C22.0394 11.3204 22.0139 10.4714 21.7831 9.66745C21.5522 8.86352 21.1234 8.13034 20.5359 7.53505C19.9483 6.93975 19.2208 6.50136 18.42 6.26002V6.22002ZM16 19C15.8022 19 15.6089 19.0587 15.4444 19.1685C15.28 19.2784 15.1518 19.4346 15.0761 19.6173C15.0004 19.8001 14.9806 20.0011 15.0192 20.1951C15.0578 20.3891 15.153 20.5673 15.2929 20.7071C15.4327 20.847 15.6109 20.9422 15.8049 20.9808C15.9989 21.0194 16.1999 20.9996 16.3827 20.9239C16.5654 20.8482 16.7216 20.72 16.8315 20.5556C16.9413 20.3911 17 20.1978 17 20C17 19.7348 16.8946 19.4804 16.7071 19.2929C16.5196 19.1054 16.2652 19 16 19Z" fill="black"/>
</svg>
