<svg width="24" height="24" viewBox="0 0 24 24" fill="none" xmlns="http://www.w3.org/2000/svg">
<path d="M17 9.49994H7.40999L8.70999 8.20994C8.89829 8.02164 9.00408 7.76624 9.00408 7.49994C9.00408 7.23364 8.89829 6.97825 8.70999 6.78994C8.52168 6.60164 8.26629 6.49585 7.99999 6.49585C7.73369 6.49585 7.47829 6.60164 7.28999 6.78994L4.28999 9.78994C4.19895 9.88505 4.12758 9.99719 4.07999 10.1199C3.97997 10.3634 3.97997 10.6365 4.07999 10.8799C4.12758 11.0027 4.19895 11.1148 4.28999 11.2099L7.28999 14.2099C7.38295 14.3037 7.49355 14.3781 7.61541 14.4288C7.73727 14.4796 7.86798 14.5057 7.99999 14.5057C8.132 14.5057 8.26271 14.4796 8.38456 14.4288C8.50642 14.3781 8.61702 14.3037 8.70999 14.2099C8.80372 14.117 8.87811 14.0064 8.92888 13.8845C8.97965 13.7627 9.00579 13.632 9.00579 13.4999C9.00579 13.3679 8.97965 13.2372 8.92888 13.1154C8.87811 12.9935 8.80372 12.8829 8.70999 12.7899L7.40999 11.4999H17C17.2652 11.4999 17.5196 11.6053 17.7071 11.7928C17.8946 11.9804 18 12.2347 18 12.4999V16.4999C18 16.7652 18.1053 17.0195 18.2929 17.207C18.4804 17.3946 18.7348 17.4999 19 17.4999C19.2652 17.4999 19.5196 17.3946 19.7071 17.207C19.8946 17.0195 20 16.7652 20 16.4999V12.4999C20 11.7043 19.6839 10.9412 19.1213 10.3786C18.5587 9.81601 17.7956 9.49994 17 9.49994Z" fill="black"/>
</svg>
