<svg width="24" height="24" viewBox="0 0 24 24" fill="none" xmlns="http://www.w3.org/2000/svg">
<path d="M22 14.44C22.0045 14.3968 22.0045 14.3532 22 14.31C21.996 14.2701 21.996 14.2299 22 14.19L21.95 14.07L15.95 3.78C15.8542 3.61681 15.7141 3.48415 15.546 3.39741C15.3778 3.31068 15.1885 3.27343 15 3.29H8.99999C8.82481 3.28879 8.65239 3.33362 8.49999 3.42L8.38999 3.5C8.35783 3.52414 8.32773 3.5509 8.29999 3.58C8.26139 3.6153 8.22776 3.65567 8.19999 3.7C8.19999 3.7 8.19999 3.7 8.13999 3.78L2.13999 14.11C2.05222 14.262 2.00601 14.4345 2.00601 14.61C2.00601 14.7855 2.05222 14.958 2.13999 15.11L5.13999 20.19C5.17092 20.244 5.20782 20.2943 5.24999 20.34V20.4C5.37421 20.52 5.52494 20.6091 5.68999 20.66C5.763 20.6698 5.83698 20.6698 5.90999 20.66H18C18.1735 20.66 18.3441 20.6148 18.4949 20.5289C18.6456 20.4429 18.7715 20.3193 18.86 20.17L21.86 15.03L21.91 14.91C21.906 14.8701 21.906 14.8299 21.91 14.79C21.9153 14.7468 21.9153 14.7032 21.91 14.66C21.9155 14.6168 21.9155 14.5732 21.91 14.53C21.9431 14.5033 21.9733 14.4732 22 14.44ZM5.99999 17.73L4.20999 14.63L8.99999 6.27L9.86999 7.77L10.87 9.43L6.99999 15.91L5.99999 17.73ZM12 11.41L13.26 13.57H10.72L12 11.41ZM17.43 18.71H7.69999L9.53999 15.57H19.26L17.43 18.71ZM15.57 13.57L10.74 5.29H14.43L19.26 13.57H15.57Z" fill="black"/>
</svg>
