<svg width="24" height="24" viewBox="0 0 24 24" fill="none" xmlns="http://www.w3.org/2000/svg">
<path d="M20.9189 10.653C20.6044 10.4831 17.9081 8.91862 16.8964 8.32976L16.8935 8.32776L4.6386 1.25262C4.42982 1.12517 4.19572 1.04488 3.95266 1.01736C3.70961 0.989847 3.46348 1.01577 3.23149 1.09332C3.20531 1.10272 3.18071 1.11218 3.15526 1.12383C3.09617 1.14309 3.03841 1.16621 2.98235 1.19305C2.74804 1.3331 2.55581 1.53372 2.42589 1.7738C2.29597 2.01388 2.23316 2.28455 2.24407 2.55731V21.5427C2.23664 21.7968 2.29682 22.0483 2.41847 22.2715C2.54012 22.4948 2.71888 22.6817 2.93645 22.8132C2.98664 22.8377 3.03834 22.859 3.09124 22.8769C3.12017 22.8902 3.14775 22.9019 3.1776 22.9124C3.32081 22.9643 3.47164 22.9922 3.62395 22.9948C3.91645 22.9917 4.203 22.9118 4.45501 22.7634C4.84368 22.5378 16.8935 15.5807 16.8935 15.5807L20.914 13.2594C21.1626 13.1349 21.3724 12.9448 21.5207 12.7097C21.6691 12.4746 21.7504 12.2034 21.7558 11.9254C21.7436 11.6577 21.6594 11.3982 21.5121 11.1743C21.3648 10.9504 21.1599 10.7703 20.9189 10.653ZM4.24407 19.839V4.10186L12.1842 11.9609L4.24407 19.839ZM9.26207 17.6773L13.6056 13.3677L14.7551 14.5056C13.4905 15.2358 11.3538 16.4696 9.26207 17.6774V17.6773ZM13.6039 10.5523L9.206 6.19933L14.7597 9.40563L13.6039 10.5523ZM16.5507 13.469L15.0253 11.9592L16.553 10.4434C17.2733 10.8617 18.3958 11.5127 19.1689 11.9577L16.5507 13.469Z" fill="black"/>
</svg>
