<svg width="24" height="24" viewBox="0 0 24 24" fill="none" xmlns="http://www.w3.org/2000/svg">
<path d="M8.99169 7.69049C8.46126 7.69049 7.95255 7.9012 7.57748 8.27627C7.2024 8.65135 6.99169 9.16006 6.99169 9.69049C6.99169 10.2209 7.2024 10.7296 7.57748 11.1047C7.95255 11.4798 8.46126 11.6905 8.99169 11.6905L9.00683 11.689V12.1904C9.00657 12.323 8.9538 12.45 8.86009 12.5437C8.76638 12.6374 8.63936 12.6902 8.50683 12.6904C8.24161 12.6904 7.98726 12.7958 7.79972 12.9833C7.61219 13.1709 7.50683 13.4252 7.50683 13.6904C7.50683 13.9556 7.61219 14.21 7.79972 14.3975C7.98726 14.5851 8.24161 14.6904 8.50683 14.6904C9.16968 14.6898 9.80521 14.4262 10.2739 13.9575C10.7426 13.4888 11.0062 12.8533 11.0068 12.1904V9.69043C11.0008 9.63954 10.9907 9.58923 10.9765 9.54C10.9401 9.03814 10.7153 8.56861 10.3472 8.22558C9.97907 7.88255 9.49486 7.6914 8.99169 7.69049ZM11.9912 1.00195C9.48214 1.002 7.06893 1.96564 5.24996 3.69386C3.43099 5.42207 2.34521 7.78286 2.21686 10.2886C2.08852 12.7944 2.92741 15.2538 4.56028 17.1588C6.19315 19.0638 8.49528 20.269 10.9912 20.5254V22.002C10.9911 22.1537 11.0255 22.3035 11.0918 22.4399C11.1582 22.5763 11.2548 22.6959 11.3742 22.7894C11.4937 22.883 11.6328 22.9481 11.7812 22.9799C11.9295 23.0116 12.0832 23.0092 12.2305 22.9727C14.7507 22.349 17.0151 20.9582 18.7108 18.9923C20.4066 17.0264 21.4501 14.5825 21.6973 11.998C21.8774 10.6203 21.7605 9.21995 21.3545 7.89116C20.9484 6.56236 20.2626 5.3359 19.3431 4.2942C18.4237 3.25251 17.2918 2.41973 16.0237 1.85186C14.7556 1.28398 13.3806 0.994169 11.9912 1.0019V1.00195ZM19.709 11.7822C19.5255 13.7382 18.7993 15.604 17.6124 17.1695C16.4255 18.7349 14.825 19.9378 12.9912 20.6426V19.5762C12.9913 19.4448 12.9655 19.3148 12.9153 19.1934C12.865 19.072 12.7914 18.9618 12.6985 18.8689C12.6056 18.776 12.4954 18.7024 12.374 18.6521C12.2526 18.6019 12.1226 18.5761 11.9912 18.5762C10.4511 18.576 8.94566 18.1191 7.6652 17.2633C6.38475 16.4075 5.38681 15.1913 4.79757 13.7684C4.20833 12.3455 4.05426 10.7798 4.35484 9.26927C4.65542 7.75878 5.39714 6.37134 6.48623 5.28239C7.57531 4.19344 8.96285 3.45189 10.4734 3.1515C11.9839 2.85112 13.5496 3.00538 14.9724 3.5948C16.3953 4.18422 17.6114 5.18231 18.467 6.46287C19.3226 7.74344 19.7793 9.24895 19.7793 10.7891C19.7767 11.1213 19.7532 11.453 19.709 11.7822ZM14.9917 7.69049C14.4613 7.69049 13.9525 7.9012 13.5775 8.27627C13.2024 8.65135 12.9917 9.16006 12.9917 9.69049C12.9917 10.2209 13.2024 10.7296 13.5775 11.1047C13.9525 11.4798 14.4613 11.6905 14.9917 11.6905L15.0068 11.689V12.1904C15.0066 12.323 14.9538 12.45 14.8601 12.5437C14.7664 12.6374 14.6394 12.6902 14.5068 12.6904C14.2416 12.6904 13.9873 12.7958 13.7997 12.9833C13.6122 13.1709 13.5068 13.4252 13.5068 13.6904C13.5068 13.9556 13.6122 14.21 13.7997 14.3975C13.9873 14.5851 14.2416 14.6904 14.5068 14.6904C15.1697 14.6898 15.8052 14.4262 16.2739 13.9575C16.7426 13.4888 17.0062 12.8533 17.0068 12.1904V9.69043C17.0008 9.63954 16.9907 9.58923 16.9765 9.54C16.9401 9.03814 16.7153 8.56861 16.3472 8.22558C15.9791 7.88255 15.4949 7.6914 14.9917 7.69049Z" fill="black"/>
</svg>
