<svg width="24" height="24" viewBox="0 0 24 24" fill="none" xmlns="http://www.w3.org/2000/svg">
<path d="M20.16 4.61C19.0983 3.548 17.6907 2.90232 16.1932 2.79038C14.6957 2.67843 13.2078 3.10766 12 4C10.7277 3.05363 9.14399 2.62451 7.56792 2.79903C5.99185 2.97356 4.54044 3.73877 3.50597 4.94058C2.47151 6.14239 1.93082 7.69152 1.9928 9.27601C2.05478 10.8605 2.71482 12.3627 3.84 13.48L11.29 20.94C11.383 21.0337 11.4936 21.1081 11.6154 21.1589C11.7373 21.2097 11.868 21.2358 12 21.2358C12.132 21.2358 12.2627 21.2097 12.3846 21.1589C12.5064 21.1081 12.617 21.0337 12.71 20.94L20.16 13.48C20.7427 12.8977 21.2049 12.2063 21.5202 11.4454C21.8356 10.6844 21.9979 9.86873 21.9979 9.045C21.9979 8.22127 21.8356 7.40561 21.5202 6.64463C21.2049 5.88365 20.7427 5.19227 20.16 4.61ZM18.75 12.06L12 18.81L5.25 12.06C4.47542 11.3035 4.01794 10.2805 3.97055 9.1988C3.92316 8.11713 4.28941 7.05799 4.99486 6.23666C5.70032 5.41533 6.69204 4.89342 7.76847 4.77702C8.84491 4.66062 9.92527 4.95846 10.79 5.61L9.08 9.61C9.02057 9.74028 8.98982 9.8818 8.98982 10.025C8.98982 10.1682 9.02057 10.3097 9.08 10.44C9.14351 10.5701 9.23452 10.6849 9.34675 10.7764C9.45898 10.8679 9.58974 10.934 9.73 10.97L12.5 11.67L11.1 14.56C11.042 14.6781 11.0078 14.8066 10.9996 14.9379C10.9913 15.0693 11.009 15.201 11.0518 15.3255C11.0945 15.45 11.1614 15.5648 11.2486 15.6634C11.3358 15.762 11.4416 15.8424 11.56 15.9C11.6971 15.9664 11.8476 16.0006 12 16C12.1874 16.0004 12.3712 15.9481 12.5303 15.8491C12.6894 15.75 12.8175 15.6083 12.9 15.44L14.9 11.44C14.964 11.3057 14.9972 11.1588 14.9972 11.01C14.9972 10.8612 14.964 10.7143 14.9 10.58C14.8339 10.4459 14.74 10.3275 14.6244 10.2326C14.5089 10.1378 14.3744 10.0687 14.23 10.03L11.4 9.32L12.85 5.93C13.6629 5.14496 14.7543 4.71499 15.8842 4.73468C17.0142 4.75437 18.09 5.22211 18.875 6.035C19.66 6.84789 20.09 7.93934 20.0703 9.06924C20.0506 10.1991 19.5829 11.275 18.77 12.06H18.75Z" fill="black"/>
</svg>
