<svg width="24" height="24" viewBox="0 0 24 24" fill="none" xmlns="http://www.w3.org/2000/svg">
<path d="M7.95215 8.00044H14.9385L14.7613 10.0004H9.99121C9.72599 10.0004 9.47164 10.1058 9.2841 10.2933C9.09656 10.4809 8.99121 10.7352 8.99121 11.0004C8.99121 11.2657 9.09656 11.52 9.2841 11.7076C9.47164 11.8951 9.72599 12.0004 9.99121 12.0004H14.584L14.3203 14.977L11.9912 15.5053L9.66309 14.976L9.56738 13.9116C9.55571 13.7807 9.51838 13.6535 9.45754 13.5371C9.3967 13.4207 9.31354 13.3175 9.21279 13.2332C9.11204 13.149 8.99569 13.0854 8.87037 13.0461C8.74505 13.0069 8.61322 12.9927 8.48242 13.0043C8.35161 13.016 8.22438 13.0533 8.10799 13.1142C7.99161 13.175 7.88835 13.2582 7.8041 13.3589C7.71986 13.4597 7.65629 13.576 7.61701 13.7013C7.57773 13.8267 7.56353 13.9585 7.5752 14.0893L7.73535 15.8793C7.75426 16.0899 7.83938 16.2892 7.97849 16.4485C8.11761 16.6078 8.30359 16.7189 8.50977 16.766L11.7695 17.5063C11.9155 17.5388 12.0669 17.5388 12.2129 17.5063L15.4736 16.766C15.68 16.7189 15.866 16.6076 16.0052 16.4481C16.1443 16.2886 16.2293 16.0891 16.248 15.8783L16.6796 11.0104L16.6816 11.0004L16.6808 10.9965L17.0273 7.08829C17.0394 6.95013 17.0226 6.81098 16.978 6.67966C16.9334 6.54833 16.862 6.42771 16.7684 6.32542C16.6747 6.22314 16.5608 6.14143 16.434 6.08548C16.3071 6.02953 16.1699 6.00056 16.0312 6.0004H7.95215C7.68693 6.0004 7.43258 6.10576 7.24504 6.2933C7.0575 6.48083 6.95215 6.73519 6.95215 7.0004C6.95215 7.26562 7.0575 7.51997 7.24504 7.70751C7.43258 7.89505 7.68693 8.0004 7.95215 8.0004V8.00044ZM20.6543 2.32563C20.5605 2.22323 20.4464 2.14144 20.3193 2.08546C20.1922 2.02947 20.0549 2.00052 19.916 2.00044H4.06641C3.92757 2.00038 3.79024 2.02924 3.66318 2.08517C3.53611 2.14111 3.42209 2.22291 3.32838 2.32535C3.23467 2.42778 3.16332 2.54862 3.11889 2.68015C3.07446 2.81169 3.05791 2.95103 3.07031 3.08931L4.51367 19.2836C4.53167 19.486 4.61095 19.6781 4.74094 19.8343C4.87093 19.9904 5.04545 20.1032 5.24121 20.1576L11.7139 21.9633C11.8895 22.0128 12.0754 22.0128 12.251 21.9633L18.7412 20.1508C18.937 20.0964 19.1115 19.9836 19.2415 19.8274C19.3715 19.6713 19.4507 19.4792 19.4687 19.2768L20.9121 3.0893C20.9244 2.9511 20.9078 2.81185 20.8634 2.68039C20.819 2.54893 20.7478 2.42813 20.6543 2.32563ZM17.5381 18.4106L11.9824 19.9624L6.44434 18.4174L5.15918 4.00044H18.8232L17.5381 18.4106Z" fill="black"/>
</svg>
