<svg width="24" height="24" viewBox="0 0 24 24" fill="none" xmlns="http://www.w3.org/2000/svg">
<path d="M3 8.1C3.26522 8.1 3.51957 7.99464 3.70711 7.8071C3.89465 7.61957 4 7.36521 4 7.1V6.91C4 6.64478 3.89465 6.39043 3.70711 6.20289C3.51957 6.01535 3.26522 5.91 3 5.91C2.73479 5.91 2.48043 6.01535 2.2929 6.20289C2.10536 6.39043 2 6.64478 2 6.91V7.1C2 7.36521 2.10536 7.61957 2.2929 7.8071C2.48043 7.99464 2.73479 8.1 3 8.1ZM3 4.1C3.14561 4.09764 3.28895 4.06352 3.42 4C3.68522 3.95756 3.92272 3.81151 4.08025 3.59397C4.23778 3.37643 4.30244 3.10521 4.26 2.84C4.21757 2.57478 4.07151 2.33728 3.85397 2.17975C3.63643 2.02222 3.36522 1.95756 3.1 2H3C2.72505 2.02276 2.46896 2.14893 2.28338 2.35307C2.0978 2.55721 1.99653 2.82413 2 3.1C2.01284 3.35645 2.12384 3.59814 2.31 3.775C2.49617 3.95185 2.74323 4.05032 3 4.05V4.1ZM20.39 3.91C20.5458 4.03238 20.7345 4.10572 20.9321 4.12069C21.1297 4.13567 21.3272 4.09161 21.4997 3.99412C21.6722 3.89662 21.8119 3.75008 21.9009 3.57308C21.99 3.39609 22.0245 3.19662 22 3C22 2.73478 21.8946 2.48043 21.7071 2.29289C21.5196 2.10535 21.2652 2 21 2H20.9C20.6809 2.00006 20.4679 2.07207 20.2937 2.20497C20.1195 2.33786 19.9938 2.52427 19.9359 2.73556C19.878 2.94685 19.891 3.17132 19.9731 3.37447C20.0551 3.57762 20.2016 3.7482 20.39 3.86V3.91ZM11.89 4H12.11C12.3752 4 12.6296 3.89464 12.8171 3.7071C13.0046 3.51957 13.11 3.26521 13.11 3C13.11 2.73478 13.0046 2.48043 12.8171 2.29289C12.6296 2.10535 12.3752 2 12.11 2H11.89C11.6248 2 11.3704 2.10535 11.1829 2.29289C10.9954 2.48043 10.89 2.73478 10.89 3C10.89 3.26521 10.9954 3.51957 11.1829 3.7071C11.3704 3.89464 11.6248 4 11.89 4ZM7.39 4H7.6C7.86522 4 8.11957 3.89464 8.30711 3.7071C8.49465 3.51957 8.6 3.26521 8.6 3C8.6 2.73478 8.49465 2.48043 8.30711 2.29289C8.11957 2.10535 7.86522 2 7.6 2H7.39C7.12479 2 6.87043 2.10535 6.6829 2.29289C6.49536 2.48043 6.39 2.73478 6.39 3C6.39 3.26521 6.49536 3.51957 6.6829 3.7071C6.87043 3.89464 7.12479 4 7.39 4ZM21 20C20.8544 20.0024 20.7111 20.0365 20.58 20.1C20.3822 20.1927 20.2202 20.3477 20.1187 20.5412C20.0173 20.7347 19.982 20.9561 20.0183 21.1715C20.0546 21.387 20.1604 21.5846 20.3197 21.7342C20.4789 21.8838 20.6827 21.9772 20.9 22H21C21.275 21.9772 21.531 21.8511 21.7166 21.6469C21.9022 21.4428 22.0035 21.1759 22 20.9C21.9751 20.6525 21.8589 20.4231 21.674 20.2567C21.4891 20.0903 21.2488 19.9988 21 20ZM14 11C14 10.7348 13.8946 10.4804 13.7071 10.2929C13.5196 10.1054 13.2652 10 13 10H3.27C3.18036 9.9887 3.08965 9.9887 3 10C2.73479 10 2.48043 10.1054 2.2929 10.2929C2.10536 10.4804 2 10.7348 2 11V21C2 21.2652 2.10536 21.5196 2.2929 21.7071C2.48043 21.8946 2.73479 22 3 22H13.1C13.2673 21.9987 13.4315 21.9555 13.5778 21.8744C13.724 21.7932 13.8476 21.6766 13.9371 21.5354C14.0267 21.3941 14.0793 21.2326 14.0903 21.0657C14.1013 20.8988 14.0703 20.7318 14 20.58V11ZM12 20H5.52L9.43 16.1C9.4607 16.0689 9.49729 16.0441 9.53763 16.0272C9.57798 16.0104 9.62127 16.0017 9.665 16.0017C9.70873 16.0017 9.75203 16.0104 9.79237 16.0272C9.83272 16.0441 9.8693 16.0689 9.9 16.1L12 18.19V20ZM12 15.37L11.32 14.68C10.8798 14.2434 10.285 13.9984 9.665 13.9984C9.04502 13.9984 8.45016 14.2434 8.01 14.68L4.01 18.68V12H12.01L12 15.37ZM21 15.37C20.7348 15.37 20.4804 15.4754 20.2929 15.6629C20.1054 15.8504 20 16.1048 20 16.37V16.58C20 16.8452 20.1054 17.0996 20.2929 17.2871C20.4804 17.4746 20.7348 17.58 21 17.58C21.2652 17.58 21.5196 17.4746 21.7071 17.2871C21.8946 17.0996 22 16.8452 22 16.58V16.4C22 16.1348 21.8946 15.8804 21.7071 15.6929C21.5196 15.5054 21.2652 15.4 21 15.4V15.37ZM21 6.37C20.7348 6.37 20.4804 6.47535 20.2929 6.66289C20.1054 6.85043 20 7.10478 20 7.37V7.6C20 7.86521 20.1054 8.11957 20.2929 8.3071C20.4804 8.49464 20.7348 8.6 21 8.6C21.2652 8.6 21.5196 8.49464 21.7071 8.3071C21.8946 8.11957 22 7.86521 22 7.6V7.39C22 7.12478 21.8946 6.87043 21.7071 6.68289C21.5196 6.49535 21.2652 6.39 21 6.39V6.37ZM21 10.87C20.7348 10.87 20.4804 10.9754 20.2929 11.1629C20.1054 11.3504 20 11.6048 20 11.87V12.09C20 12.3552 20.1054 12.6096 20.2929 12.7971C20.4804 12.9846 20.7348 13.09 21 13.09C21.2652 13.09 21.5196 12.9846 21.7071 12.7971C21.8946 12.6096 22 12.3552 22 12.09V11.87C21.9948 11.6083 21.8871 11.359 21.7001 11.1758C21.5132 10.9926 21.2618 10.8899 21 10.89V10.87ZM17.1 20H16.9C16.6348 20 16.3804 20.1054 16.1929 20.2929C16.0054 20.4804 15.9 20.7348 15.9 21C15.9 21.2652 16.0054 21.5196 16.1929 21.7071C16.3804 21.8946 16.6348 22 16.9 22H17.1C17.3652 22 17.6196 21.8946 17.8071 21.7071C17.9946 21.5196 18.1 21.2652 18.1 21C18.1 20.7348 17.9946 20.4804 17.8071 20.2929C17.6196 20.1054 17.3652 20 17.1 20ZM16.61 4C16.8752 4 17.1296 3.89464 17.3171 3.7071C17.5046 3.51957 17.61 3.26521 17.61 3C17.61 2.73478 17.5046 2.48043 17.3171 2.29289C17.1296 2.10535 16.8752 2 16.61 2H16.4C16.1348 2 15.8804 2.10535 15.6929 2.29289C15.5054 2.48043 15.4 2.73478 15.4 3C15.4 3.26521 15.5054 3.51957 15.6929 3.7071C15.8804 3.89464 16.1348 4 16.4 4H16.61Z" fill="black"/>
</svg>
