<svg width="24" height="24" viewBox="0 0 24 24" fill="none" xmlns="http://www.w3.org/2000/svg">
<path d="M15.55 8.99999C15.6745 9.0474 15.8068 9.07114 15.94 9.06999H19.94C20.2052 9.06999 20.4596 8.96463 20.6471 8.7771C20.8346 8.58956 20.94 8.33521 20.94 8.06999C20.94 7.80477 20.8346 7.55042 20.6471 7.36288C20.4596 7.17535 20.2052 7.06999 19.94 7.06999H18.35L21.64 3.77999C21.7447 3.69034 21.8297 3.58003 21.8897 3.45596C21.9497 3.3319 21.9835 3.19676 21.9888 3.05904C21.9941 2.92132 21.9709 2.78399 21.9206 2.65567C21.8704 2.52734 21.7941 2.41079 21.6966 2.31334C21.5992 2.21589 21.4826 2.13963 21.3543 2.08935C21.226 2.03908 21.0887 2.01587 20.9509 2.02119C20.8132 2.02651 20.6781 2.06024 20.554 2.12026C20.43 2.18029 20.3196 2.26531 20.23 2.36999L16.94 5.64999V4.05999C16.94 3.79477 16.8346 3.54042 16.6471 3.35288C16.4596 3.16535 16.2052 3.05999 15.94 3.05999C15.6748 3.05999 15.4204 3.16535 15.2329 3.35288C15.0454 3.54042 14.94 3.79477 14.94 4.05999V8.05999C14.9388 8.19322 14.9626 8.32548 15.01 8.44999C15.0591 8.57283 15.1322 8.6847 15.2249 8.77911C15.3176 8.87352 15.4281 8.9486 15.55 8.99999ZM19.44 13C19.22 13 18.99 12.93 18.77 12.88C18.3245 12.7818 17.8867 12.6515 17.46 12.49C16.9961 12.3212 16.4861 12.33 16.0283 12.5146C15.5705 12.6992 15.1971 13.0466 14.98 13.49L14.76 13.94C13.786 13.3982 12.891 12.7252 12.1 11.94C11.3148 11.149 10.6418 10.254 10.1 9.27999L10.52 8.99999C10.9634 8.78291 11.3108 8.40952 11.4954 7.95168C11.68 7.49384 11.6888 6.9839 11.52 6.51999C11.3612 6.09241 11.2309 5.65479 11.13 5.20999C11.08 4.98999 11.04 4.75999 11.01 4.52999C10.8886 3.82561 10.5196 3.18773 9.96962 2.73123C9.41962 2.27473 8.7247 2.0296 8.01 2.03999H5.01C4.57903 2.03594 4.15225 2.1248 3.75871 2.30052C3.36517 2.47624 3.01411 2.73469 2.72943 3.05827C2.44475 3.38186 2.23313 3.76298 2.10899 4.1757C1.98484 4.58842 1.95108 5.02305 2.01 5.44999C2.54274 9.63937 4.45603 13.5319 7.44765 16.5126C10.4393 19.4934 14.3387 21.3925 18.53 21.91H18.91C19.6474 21.9111 20.3594 21.6405 20.91 21.15C21.2264 20.867 21.4791 20.5202 21.6515 20.1323C21.8238 19.7444 21.912 19.3244 21.91 18.9V15.9C21.8978 15.2054 21.6448 14.5365 21.1943 14.0077C20.7439 13.4788 20.1238 13.1226 19.44 13ZM19.94 19C19.9398 19.142 19.9094 19.2823 19.8508 19.4116C19.7922 19.5409 19.7067 19.6563 19.6 19.75C19.4883 19.8465 19.3576 19.9185 19.2164 19.9616C19.0752 20.0046 18.9266 20.0177 18.78 20C15.0349 19.5198 11.5562 17.8065 8.89272 15.1303C6.2292 12.4541 4.53241 8.96733 4.07 5.21999C4.05408 5.07351 4.06803 4.92532 4.111 4.78438C4.15397 4.64344 4.22507 4.51268 4.32 4.39999C4.41371 4.29332 4.52906 4.20783 4.65838 4.14921C4.7877 4.09058 4.92801 4.06017 5.07 4.05999H8.07C8.30255 4.05482 8.52962 4.13087 8.71214 4.27506C8.89466 4.41925 9.02121 4.62256 9.07 4.84999C9.11 5.12332 9.16 5.39332 9.22 5.65999C9.33552 6.18713 9.48926 6.70517 9.68 7.20999L8.28 7.85999C8.1603 7.91491 8.05262 7.99294 7.96316 8.08959C7.87369 8.18624 7.8042 8.2996 7.75867 8.42319C7.71314 8.54677 7.69247 8.67812 7.69785 8.80971C7.70322 8.9413 7.73454 9.07054 7.79 9.18999C9.2292 12.2727 11.7072 14.7508 14.79 16.19C15.0335 16.29 15.3065 16.29 15.55 16.19C15.6747 16.1454 15.7893 16.0764 15.8872 15.9872C15.985 15.8979 16.0642 15.7901 16.12 15.67L16.74 14.27C17.257 14.4549 17.7846 14.6085 18.32 14.73C18.5867 14.79 18.8567 14.84 19.13 14.88C19.3574 14.9288 19.5607 15.0553 19.7049 15.2378C19.8491 15.4204 19.9252 15.6474 19.92 15.88L19.94 19Z" fill="black"/>
</svg>
