<svg width="24" height="24" viewBox="0 0 24 24" fill="none" xmlns="http://www.w3.org/2000/svg">
<path d="M21.38 5.75998C21.3459 5.63229 21.2867 5.51263 21.2061 5.40792C21.1254 5.30322 21.0248 5.21555 20.91 5.14998L15.71 2.14998C15.5965 2.08345 15.4709 2.03998 15.3405 2.02206C15.2102 2.00415 15.0775 2.01215 14.9503 2.04559C14.823 2.07903 14.7036 2.13727 14.5989 2.21696C14.4941 2.29665 14.4062 2.39623 14.34 2.50998L12 6.56998L9.66 2.50998C9.59384 2.39623 9.50587 2.29665 9.40115 2.21696C9.29643 2.13727 9.17701 2.07903 9.04973 2.04559C8.92246 2.01215 8.78983 2.00415 8.65946 2.02206C8.52909 2.03998 8.40354 2.08345 8.29 2.14998L3.09 5.14998C2.97523 5.21555 2.8746 5.30322 2.79393 5.40792C2.71326 5.51263 2.65414 5.63229 2.62 5.75998C2.55382 6.01343 2.58973 6.28273 2.72 6.50998L6.72 13.34C6.27375 14.1575 6.02704 15.069 6 16C5.99762 16.9083 6.20149 17.8052 6.59622 18.6233C6.99096 19.4413 7.56626 20.159 8.27876 20.7223C8.99126 21.2857 9.82235 21.6799 10.7094 21.8753C11.5964 22.0706 12.5162 22.0621 13.3994 21.8502C14.2827 21.6384 15.1063 21.2287 15.8082 20.6523C16.5101 20.0758 17.0719 19.3475 17.4513 18.5222C17.8308 17.697 18.0179 16.7964 17.9986 15.8883C17.9793 14.9802 17.7541 14.0884 17.34 13.28L21.24 6.51998C21.3126 6.40892 21.3623 6.28453 21.3864 6.15405C21.4104 6.02357 21.4082 5.88961 21.38 5.75998ZM5 6.37998L8.46 4.37998L11.68 9.99998C10.3074 10.0848 9.00679 10.6432 8 11.58L5 6.37998ZM12 20C10.9391 20 9.92172 19.5786 9.17157 18.8284C8.42143 18.0783 8 17.0608 8 16C8 14.9391 8.42143 13.9217 9.17157 13.1716C9.92172 12.4214 10.9391 12 12 12C13.0609 12 14.0783 12.4214 14.8284 13.1716C15.5786 13.9217 16 14.9391 16 16C16 17.0608 15.5786 18.0783 14.8284 18.8284C14.0783 19.5786 13.0609 20 12 20ZM16 11.55C15.4571 11.0541 14.8262 10.6641 14.14 10.4L13.16 8.56998L15.58 4.37998L19.04 6.37998L16 11.55Z" fill="black"/>
</svg>
