<svg width="24" height="24" viewBox="0 0 24 24" fill="none" xmlns="http://www.w3.org/2000/svg">
<path d="M6 7.48999C6.26521 7.48999 6.51957 7.38463 6.7071 7.1971C6.89464 7.00956 7 6.75521 7 6.48999V5.89999L9.88 8.77999C10.4425 9.34179 11.205 9.65735 12 9.65735C12.795 9.65735 13.5575 9.34179 14.12 8.77999L18.71 4.18999C18.8962 4.00263 19.0008 3.74918 19.0008 3.48499C19.0008 3.2208 18.8962 2.96735 18.71 2.77999C18.617 2.68626 18.5064 2.61187 18.3846 2.5611C18.2627 2.51033 18.132 2.48419 18 2.48419C17.868 2.48419 17.7373 2.51033 17.6154 2.5611C17.4936 2.61187 17.383 2.68626 17.29 2.77999L12.71 7.35999C12.617 7.45372 12.5064 7.52811 12.3846 7.57888C12.2627 7.62965 12.132 7.65579 12 7.65579C11.868 7.65579 11.7373 7.62965 11.6154 7.57888C11.4936 7.52811 11.383 7.45372 11.29 7.35999L8.41 4.48999H9C9.26521 4.48999 9.51957 4.38463 9.7071 4.1971C9.89464 4.00956 10 3.75521 10 3.48999C10 3.22477 9.89464 2.97042 9.7071 2.78288C9.51957 2.59535 9.26521 2.48999 9 2.48999H6C5.80371 2.49015 5.6118 2.54808 5.4482 2.65655C5.28461 2.76502 5.15655 2.91924 5.08 3.09999C5.02961 3.22398 5.0025 3.35618 5 3.48999V6.48999C5 6.75521 5.10535 7.00956 5.29289 7.1971C5.48043 7.38463 5.73478 7.48999 6 7.48999ZM21.94 14.85C19.0924 12.6525 15.5969 11.4606 12 11.4606C8.40309 11.4606 4.90758 12.6525 2.06 14.85C1.75964 15.0921 1.51488 15.3961 1.34234 15.7412C1.1698 16.0862 1.0735 16.4644 1.06 16.85C1.03388 17.2308 1.09003 17.6127 1.22461 17.9699C1.3592 18.3271 1.56908 18.6511 1.84 18.92L3.6 20.72C4.04974 21.1696 4.64469 21.4446 5.27854 21.4959C5.91238 21.5472 6.54382 21.3714 7.06 21L7.53 20.68C7.85004 20.4735 8.18419 20.2897 8.53 20.13C8.95508 19.9423 9.29395 19.6015 9.47923 19.1753C9.66451 18.7492 9.68263 18.2689 9.53 17.83L9.44 17.59C11.1522 17.1501 12.9478 17.1501 14.66 17.59L14.57 17.83C14.4174 18.2689 14.4355 18.7492 14.6208 19.1753C14.806 19.6015 15.1449 19.9423 15.57 20.13C15.9158 20.2897 16.25 20.4735 16.57 20.68L17.04 21C17.4864 21.3276 18.0263 21.5029 18.58 21.5C19.2993 21.5009 19.9896 21.2168 20.5 20.71L22.31 18.89C22.5635 18.6145 22.756 18.2886 22.8749 17.9336C22.9938 17.5787 23.0364 17.2026 23 16.83C22.9764 16.4431 22.8695 16.0658 22.6865 15.7241C22.5036 15.3823 22.2489 15.0842 21.94 14.85ZM20.8 17.49L19 19.3C18.8906 19.414 18.7449 19.4863 18.588 19.5045C18.431 19.5228 18.2726 19.4858 18.14 19.4C17.95 19.26 17.76 19.13 17.55 19C17.1978 18.7773 16.834 18.5737 16.46 18.39L16.86 17.3C16.9501 17.0507 16.9375 16.7758 16.8249 16.5358C16.7124 16.2958 16.5092 16.1103 16.26 16.02C13.5148 15.0203 10.5051 15.0203 7.76 16.02C7.51076 16.1103 7.30756 16.2958 7.19505 16.5358C7.08254 16.7758 7.06993 17.0507 7.16 17.3L7.56 18.4C7.18091 18.5763 6.81349 18.7767 6.46 19L5.88 19.4C5.74702 19.4954 5.58335 19.538 5.42073 19.5195C5.25812 19.501 5.10818 19.4228 5 19.3L3.2 17.49C3.13513 17.4262 3.08395 17.3498 3.04956 17.2656C3.01518 17.1813 2.99831 17.091 3 17C3.0083 16.8973 3.0374 16.7973 3.08554 16.7062C3.13367 16.6151 3.19983 16.5347 3.28 16.47C5.77926 14.5449 8.84529 13.501 12 13.501C15.1547 13.501 18.2207 14.5449 20.72 16.47C20.8002 16.5347 20.8663 16.6151 20.9145 16.7062C20.9626 16.7973 20.9917 16.8973 21 17C21.0017 17.091 20.9848 17.1813 20.9504 17.2656C20.916 17.3498 20.8649 17.4262 20.8 17.49Z" fill="black"/>
</svg>
