<svg width="24" height="24" viewBox="0 0 24 24" fill="none" xmlns="http://www.w3.org/2000/svg">
<path d="M21.85 17.47L16.85 9.47002C16.7603 9.32531 16.6352 9.20589 16.4865 9.12308C16.3377 9.04027 16.1703 8.9968 16 8.9968C15.8298 8.9968 15.6624 9.04027 15.5136 9.12308C15.3649 9.20589 15.2397 9.32531 15.15 9.47002L14.15 11.1L10.86 5.50002C10.7715 5.3508 10.6456 5.22718 10.4949 5.14132C10.3441 5.05546 10.1735 5.01031 10 5.01031C9.82651 5.01031 9.65598 5.05546 9.5052 5.14132C9.35442 5.22718 9.22857 5.3508 9.14003 5.50002L2.14003 17.5C2.05251 17.6516 2.00631 17.8235 2.00604 17.9985C2.00578 18.1735 2.05146 18.3456 2.13851 18.4974C2.22557 18.6493 2.35095 18.7756 2.50214 18.8638C2.65332 18.952 2.825 18.999 3.00003 19H21C21.1787 19.0004 21.3542 18.9529 21.5083 18.8624C21.6624 18.7719 21.7894 18.6419 21.8762 18.4857C21.963 18.3295 22.0063 18.1529 22.0017 17.9743C21.9971 17.7957 21.9447 17.6215 21.85 17.47ZM10.45 17H4.74003L10 8.00002L12.93 13L10.45 17ZM12.8 17L15 13.57L16 11.89L19.2 17H12.8Z" fill="black"/>
</svg>
