<svg width="24" height="24" viewBox="0 0 24 24" fill="none" xmlns="http://www.w3.org/2000/svg">
<path d="M12 7.32998C12.2652 7.32998 12.5196 7.22462 12.7071 7.03708C12.8946 6.84955 13 6.59519 13 6.32998V5.77998L19 4.27998V7.21998L14.7 8.29998C14.4348 8.3318 14.1931 8.46768 14.028 8.67772C13.863 8.88776 13.7882 9.15476 13.82 9.41998C13.8518 9.68519 13.9877 9.9269 14.1977 10.0919C14.4078 10.257 14.6748 10.3318 14.94 10.3H15.18L20.24 8.99998H20.31L20.5 8.90998L20.65 8.80998C20.6986 8.76476 20.7421 8.71447 20.78 8.65998C20.819 8.61401 20.8526 8.56367 20.88 8.50998C20.9103 8.4539 20.9306 8.393 20.94 8.32998C20.9493 8.26698 20.9493 8.20297 20.94 8.13998C20.9747 8.10106 20.9957 8.05192 21 7.99998V2.99998C21.0045 2.84578 20.9733 2.69263 20.9088 2.5525C20.8443 2.41237 20.7483 2.28907 20.6282 2.19223C20.5081 2.09539 20.3673 2.02765 20.2166 1.99429C20.066 1.96094 19.9097 1.96289 19.76 1.99998L11.76 3.99998C11.5381 4.05473 11.3417 4.18382 11.2034 4.36577C11.0651 4.54772 10.9933 4.77154 11 4.99998V6.32998C11 6.59519 11.1054 6.84955 11.2929 7.03708C11.4804 7.22462 11.7348 7.32998 12 7.32998ZM21.71 20.33L12.71 11.33L3.71 2.32998C3.51952 2.1826 3.28225 2.10892 3.04179 2.12247C2.80134 2.13602 2.57385 2.2359 2.40114 2.40375C2.22842 2.5716 2.12209 2.79614 2.10167 3.03611C2.08125 3.27608 2.14813 3.51536 2.29 3.70998L11 12.41V15.35C10.5328 15.1218 10.02 15.0021 9.5 15C8.80777 15 8.13108 15.2052 7.55551 15.5898C6.97993 15.9744 6.53133 16.521 6.26642 17.1606C6.00152 17.8001 5.93221 18.5039 6.06725 19.1828C6.2023 19.8617 6.53565 20.4854 7.02513 20.9748C7.51461 21.4643 8.13825 21.7977 8.81719 21.9327C9.49612 22.0678 10.1999 21.9985 10.8394 21.7336C11.4789 21.4686 12.0256 21.02 12.4101 20.4445C12.7947 19.8689 13 19.1922 13 18.5V14.41L20.29 21.71C20.383 21.8037 20.4936 21.8781 20.6154 21.9289C20.7373 21.9796 20.868 22.0058 21 22.0058C21.132 22.0058 21.2627 21.9796 21.3846 21.9289C21.5064 21.8781 21.617 21.8037 21.71 21.71C21.8037 21.617 21.8781 21.5064 21.9289 21.3846C21.9797 21.2627 22.0058 21.132 22.0058 21C22.0058 20.868 21.9797 20.7373 21.9289 20.6154C21.8781 20.4935 21.8037 20.3829 21.71 20.29V20.33ZM9.5 20C9.20333 20 8.91332 19.912 8.66665 19.7472C8.41997 19.5824 8.22771 19.3481 8.11418 19.074C8.00065 18.7999 7.97095 18.4983 8.02882 18.2073C8.0867 17.9164 8.22956 17.6491 8.43934 17.4393C8.64912 17.2295 8.9164 17.0867 9.20737 17.0288C9.49834 16.9709 9.79994 17.0006 10.074 17.1142C10.3481 17.2277 10.5824 17.4199 10.7472 17.6666C10.912 17.9133 11 18.2033 11 18.5C11 18.8978 10.842 19.2793 10.5607 19.5606C10.2794 19.8419 9.89783 20 9.5 20Z" fill="black"/>
</svg>
