<svg width="24" height="24" viewBox="0 0 24 24" fill="none" xmlns="http://www.w3.org/2000/svg">
<path d="M22 5.07996C22.0008 4.47018 21.8207 3.87387 21.4823 3.36659C21.1439 2.85931 20.6626 2.46388 20.0992 2.23042C19.5359 1.99695 18.916 1.93595 18.318 2.05514C17.7199 2.17433 17.1708 2.46836 16.74 2.89996L13.93 5.70996L7.44 3.54996C7.26721 3.49565 7.08291 3.48929 6.90678 3.53156C6.73066 3.57383 6.56932 3.66314 6.44 3.78996L4.06 6.14996C3.94723 6.26403 3.86356 6.40357 3.81604 6.55678C3.76853 6.70999 3.75857 6.87238 3.78701 7.03025C3.81544 7.18811 3.88144 7.33682 3.97943 7.46383C4.07741 7.59083 4.20451 7.6924 4.35 7.75996L9.53 10.11L6.93 12.71L5.22 11.85C5.03537 11.75 4.82398 11.7107 4.61578 11.7377C4.40758 11.7646 4.21314 11.8564 4.06 12L2.29 13.81C2.10375 13.9973 1.99921 14.2508 1.99921 14.515C1.99921 14.7791 2.10375 15.0326 2.29 15.22L8.78 21.71C8.96736 21.8962 9.22081 22.0007 9.485 22.0007C9.74918 22.0007 10.0026 21.8962 10.19 21.71L12 19.94C12.1501 19.7914 12.2493 19.5992 12.2834 19.3908C12.3176 19.1824 12.2849 18.9686 12.19 18.78L11.33 17.07L13.93 14.47L16.28 19.65C16.3476 19.7954 16.4491 19.9225 16.5761 20.0205C16.7031 20.1185 16.8518 20.1845 17.0097 20.2129C17.1676 20.2414 17.33 20.2314 17.4832 20.1839C17.6364 20.1364 17.7759 20.0527 17.89 19.94L20.25 17.58C20.3768 17.4506 20.4661 17.2893 20.5084 17.1132C20.5507 16.937 20.5443 16.7527 20.49 16.58L18.33 10.09L21.1 7.25996C21.3872 6.97452 21.6147 6.63475 21.7692 6.26047C21.9238 5.88618 22.0022 5.48488 22 5.07996ZM19.68 5.84996L16.44 9.08996C16.3132 9.21928 16.2239 9.38062 16.1816 9.55674C16.1393 9.73287 16.1457 9.91716 16.2 10.09L18.36 16.57L17.46 17.47L15.11 12.3C15.0433 12.1531 14.9421 12.0246 14.815 11.9253C14.6879 11.8261 14.5386 11.7591 14.38 11.73C14.2201 11.7008 14.0554 11.711 13.9003 11.7598C13.7453 11.8086 13.6044 11.8945 13.49 12.01L9.37 16.17C9.22208 16.3177 9.12421 16.5081 9.09012 16.7144C9.05604 16.9207 9.08748 17.1325 9.18 17.32L10 19L9.44 19.56L4.41 14.52L5 14L6.71 14.86C6.89749 14.9525 7.10926 14.9839 7.31554 14.9498C7.52182 14.9157 7.71223 14.8179 7.86 14.67L12 10.51C12.1149 10.396 12.2004 10.2558 12.2492 10.1014C12.298 9.94708 12.3085 9.7832 12.28 9.62387C12.2515 9.46454 12.1847 9.31451 12.0854 9.18668C11.9862 9.05884 11.8573 8.95702 11.71 8.88996L6.5 6.53996L7.4 5.63996L13.88 7.79996C14.0528 7.85427 14.2371 7.86062 14.4132 7.81835C14.5893 7.77608 14.7507 7.68677 14.88 7.55996L18.12 4.31996C18.2197 4.21806 18.3387 4.13709 18.47 4.08182C18.6014 4.02654 18.7425 3.99807 18.885 3.99807C19.0275 3.99807 19.1686 4.02654 19.3 4.08182C19.4313 4.13709 19.5504 4.21806 19.65 4.31996C19.7543 4.4166 19.8368 4.53438 19.892 4.66544C19.9472 4.79649 19.9738 4.93781 19.97 5.07996C19.9754 5.22115 19.9526 5.36201 19.9028 5.49424C19.853 5.62648 19.7772 5.74742 19.68 5.84996Z" fill="black"/>
</svg>
