<svg width="24" height="24" viewBox="0 0 24 24" fill="none" xmlns="http://www.w3.org/2000/svg">
<path d="M21.12 16.23C20.7754 14.9675 19.9497 13.8905 18.82 13.23L16.71 12L16.23 6.52997C16.2168 6.3702 16.1654 6.21593 16.0801 6.08019C15.9949 5.94444 15.8782 5.83118 15.74 5.74997L12.74 4.02997C12.588 3.9422 12.4155 3.89599 12.24 3.89599C12.0644 3.89599 11.892 3.9422 11.74 4.02997C11.588 4.11297 11.4602 4.23402 11.369 4.38127C11.2779 4.52851 11.2265 4.69691 11.22 4.86997L11.07 8.76997L9.31998 7.76997L6.45999 3.91997C6.34369 3.76566 6.18517 3.64835 6.00362 3.58223C5.82206 3.51611 5.62524 3.504 5.43694 3.54737C5.24865 3.59074 5.07695 3.68773 4.94262 3.82662C4.80828 3.9655 4.71706 4.14033 4.67999 4.32997L3.80999 8.93997C3.65847 9.56491 3.71178 10.222 3.96205 10.8144C4.21231 11.4067 4.64629 11.903 5.19999 12.23L19.26 20.34C19.486 20.4729 19.7552 20.5118 20.0095 20.4482C20.2639 20.3846 20.4831 20.2236 20.62 20C20.9498 19.4364 21.164 18.8127 21.2498 18.1653C21.3357 17.518 21.2915 16.86 21.12 16.23ZM19.24 18L6.19999 10.5C6.01299 10.3858 5.86865 10.2134 5.78916 10.0093C5.70967 9.80512 5.69942 9.58051 5.75999 9.36997L6.21999 6.92997L7.87999 9.12997C7.96059 9.23942 8.06267 9.33129 8.17999 9.39997L11.53 11.34C11.6794 11.4264 11.8486 11.4726 12.0212 11.4743C12.1937 11.4759 12.3638 11.4328 12.5148 11.3493C12.6658 11.2657 12.7926 11.1445 12.8829 10.9974C12.9731 10.8504 13.0238 10.6824 13.03 10.51L13.19 6.60997L14.28 7.23997L14.76 12.71C14.7742 12.8707 14.8271 13.0255 14.9142 13.1614C15.0013 13.2972 15.1199 13.4099 15.26 13.49L17.82 15C18.153 15.1921 18.4447 15.4483 18.6781 15.7539C18.9116 16.0594 19.0821 16.4081 19.18 16.78C19.2915 17.1769 19.312 17.594 19.24 18Z" fill="black"/>
</svg>
