<svg width="24" height="24" viewBox="0 0 24 24" fill="none" xmlns="http://www.w3.org/2000/svg">
<path d="M21.87 11.5L17.37 3.70997C17.2819 3.55736 17.155 3.43075 17.0023 3.34295C16.8495 3.25514 16.6762 3.20927 16.5 3.20997H7.50001C7.3238 3.20927 7.15053 3.25514 6.99775 3.34295C6.84498 3.43075 6.71811 3.55736 6.63001 3.70997L2.13001 11.5C2.04224 11.652 1.99603 11.8244 1.99603 12C1.99603 12.1755 2.04224 12.3479 2.13001 12.5L6.63001 20.29C6.71811 20.4426 6.84498 20.5692 6.99775 20.657C7.15053 20.7448 7.3238 20.7907 7.50001 20.79H16.5C16.6762 20.7907 16.8495 20.7448 17.0023 20.657C17.155 20.5692 17.2819 20.4426 17.37 20.29L21.87 12.5C21.9578 12.3479 22.004 12.1755 22.004 12C22.004 11.8244 21.9578 11.652 21.87 11.5ZM15.87 18.79H8.08001L4.15001 12L8.08001 5.20997H15.92L19.85 12L15.87 18.79Z" fill="black"/>
</svg>
