<svg width="24" height="24" viewBox="0 0 24 24" fill="none" xmlns="http://www.w3.org/2000/svg">
<path d="M19.07 4.92996C18.1476 3.97486 17.0441 3.21303 15.8241 2.68894C14.604 2.16485 13.2918 1.88899 11.964 1.87745C10.6362 1.86591 9.31944 2.11893 8.09048 2.62174C6.86151 3.12455 5.745 3.86708 4.80607 4.80601C3.86714 5.74493 3.12461 6.86145 2.6218 8.09042C2.11899 9.31938 1.86598 10.6362 1.87751 11.964C1.88905 13.2918 2.16491 14.604 2.689 15.824C3.21309 17.044 3.97492 18.1475 4.93002 19.07C5.85249 20.0251 6.95593 20.7869 8.17597 21.311C9.39601 21.8351 10.7082 22.1109 12.036 22.1225C13.3638 22.134 14.6806 21.881 15.9096 21.3782C17.1385 20.8754 18.255 20.1328 19.194 19.1939C20.1329 18.255 20.8754 17.1385 21.3782 15.9095C21.881 14.6805 22.1341 13.3637 22.1225 12.0359C22.111 10.7082 21.8351 9.39595 21.311 8.17591C20.7869 6.95587 20.0251 5.85243 19.07 4.92996ZM18.23 6.99996H12.76L15.11 4.64996C16.3253 5.16846 17.3962 5.97501 18.23 6.99996ZM9.00002 4.59996C10.2271 4.1088 11.5553 3.92348 12.87 4.05996L9.00002 7.92996V4.59996ZM7.00002 5.76996V11.24L5.19002 9.42996L4.65002 8.88996C5.16852 7.67464 5.97507 6.60382 7.00002 5.76996ZM4.60002 15C4.10769 13.7731 3.92232 12.4447 4.06002 11.13L7.93002 15H4.60002ZM5.77002 17H11.24L8.89002 19.35C7.6747 18.8315 6.60388 18.0249 5.77002 17ZM15 19.4C13.7731 19.8919 12.4447 20.0772 11.13 19.94L15 16.07V19.4ZM15 13.24L13.24 15H10.75L9.00002 13.24V10.76L10.76 8.99996H13.24L15 10.76V13.24ZM17 18.24V12.76L19.35 15.11C18.8315 16.3253 18.025 17.3961 17 18.23V18.24ZM16.07 8.99996H19.4C19.892 10.2269 20.0773 11.5552 19.94 12.87L16.07 8.99996Z" fill="black"/>
</svg>
