<svg width="24" height="24" viewBox="0 0 24 24" fill="none" xmlns="http://www.w3.org/2000/svg">
<path d="M19.88 15.4999H15.38C15.1148 15.4999 14.8604 15.6053 14.6729 15.7928C14.4853 15.9803 14.38 16.2347 14.38 16.4999C14.38 16.7651 14.4853 17.0195 14.6729 17.207C14.8604 17.3945 15.1148 17.4999 15.38 17.4999H17.78C17.0358 18.286 16.1398 18.9128 15.1463 19.3426C14.1528 19.7723 13.0824 19.9959 12 19.9999C10.9285 19.9989 9.86792 19.7847 8.87998 19.3699L7.38998 20.8599C8.81039 21.611 10.3932 22.0024 12 21.9999C14.5636 21.9926 17.0265 21.001 18.88 19.2299V20.9999C18.88 21.2651 18.9853 21.5195 19.1729 21.707C19.3604 21.8945 19.6148 21.9999 19.88 21.9999C20.1452 21.9999 20.3996 21.8945 20.5871 21.707C20.7746 21.5195 20.88 21.2651 20.88 20.9999V16.4999C20.88 16.2347 20.7746 15.9803 20.5871 15.7928C20.3996 15.6053 20.1452 15.4999 19.88 15.4999ZM18.31 7.0999L19.74 5.6699L21.74 3.6699C21.8332 3.57666 21.9072 3.46597 21.9576 3.34415C22.0081 3.22233 22.0341 3.09176 22.0341 2.9599C22.0341 2.82804 22.0081 2.69747 21.9576 2.57565C21.9072 2.45383 21.8332 2.34314 21.74 2.2499C21.6467 2.15666 21.5361 2.0827 21.4142 2.03224C21.2924 1.98178 21.1618 1.95581 21.03 1.95581C20.8981 1.95581 20.7676 1.98178 20.6457 2.03224C20.5239 2.0827 20.4132 2.15666 20.32 2.2499L18.32 4.2499C16.5398 2.78649 14.3044 1.99068 12 1.9999C9.43637 2.00721 6.97347 2.99882 5.11998 4.7699V2.9999C5.11998 2.73469 5.01462 2.48033 4.82709 2.2928C4.63955 2.10526 4.3852 1.9999 4.11998 1.9999C3.85476 1.9999 3.60041 2.10526 3.41287 2.2928C3.22534 2.48033 3.11998 2.73469 3.11998 2.9999V7.4999C3.11998 7.76512 3.22534 8.01947 3.41287 8.20701C3.60041 8.39455 3.85476 8.4999 4.11998 8.4999H8.61998C8.8852 8.4999 9.13955 8.39455 9.32709 8.20701C9.51462 8.01947 9.61998 7.76512 9.61998 7.4999C9.61998 7.23469 9.51462 6.98033 9.32709 6.7928C9.13955 6.60526 8.8852 6.4999 8.61998 6.4999H6.21998C7.57624 5.05706 9.42324 4.17384 11.3978 4.02395C13.3723 3.87406 15.3315 4.46833 16.89 5.6899L5.68998 16.8899C4.5958 15.4947 4.00079 13.773 3.99998 11.9999C3.99998 11.7347 3.89462 11.4803 3.70709 11.2928C3.51955 11.1053 3.2652 10.9999 2.99998 10.9999C2.73476 10.9999 2.48041 11.1053 2.29287 11.2928C2.10534 11.4803 1.99998 11.7347 1.99998 11.9999C1.99639 14.3068 2.79937 16.5425 4.26998 18.3199L2.26998 20.3199C2.17625 20.4129 2.10186 20.5235 2.05109 20.6453C2.00032 20.7672 1.97418 20.8979 1.97418 21.0299C1.97418 21.1619 2.00032 21.2926 2.05109 21.4145C2.10186 21.5363 2.17625 21.6469 2.26998 21.7399C2.36294 21.8336 2.47354 21.908 2.5954 21.9588C2.71726 22.0096 2.84797 22.0357 2.97998 22.0357C3.11199 22.0357 3.2427 22.0096 3.36456 21.9588C3.48642 21.908 3.59702 21.8336 3.68998 21.7399L5.68998 19.7399L7.11998 18.3099L18.31 7.0999ZM19.37 8.8799C19.7848 9.86784 19.9989 10.9284 20 11.9999C20 12.2651 20.1053 12.5195 20.2929 12.707C20.4804 12.8945 20.7348 12.9999 21 12.9999C21.2652 12.9999 21.5196 12.8945 21.7071 12.707C21.8946 12.5195 22 12.2651 22 11.9999C22.0025 10.3932 21.611 8.81031 20.86 7.3899L19.37 8.8799Z" fill="black"/>
</svg>
