<svg width="24" height="24" viewBox="0 0 24 24" fill="none" xmlns="http://www.w3.org/2000/svg">
<path d="M20 16.18V7.82004C20.4797 7.65293 20.909 7.36676 21.2479 6.98836C21.5867 6.60996 21.824 6.15172 21.9373 5.6566C22.0507 5.16147 22.0365 4.64566 21.896 4.15753C21.7556 3.66939 21.4935 3.22491 21.1343 2.86574C20.7751 2.50657 20.3307 2.24448 19.8425 2.10403C19.3544 1.96358 18.8386 1.94937 18.3434 2.06273C17.8483 2.17609 17.3901 2.41331 17.0117 2.75216C16.6333 3.09101 16.3471 3.52038 16.18 4.00004H7.82C7.65288 3.52038 7.36672 3.09101 6.98832 2.75216C6.60992 2.41331 6.15168 2.17609 5.65655 2.06273C5.16142 1.94937 4.64562 1.96358 4.15748 2.10403C3.66934 2.24448 3.22486 2.50657 2.86569 2.86574C2.50653 3.22491 2.24443 3.66939 2.10398 4.15753C1.96353 4.64566 1.94932 5.16147 2.06268 5.6566C2.17604 6.15172 2.41327 6.60996 2.75211 6.98836C3.09096 7.36676 3.52034 7.65293 4 7.82004V16.18C3.52034 16.3472 3.09096 16.6333 2.75211 17.0117C2.41327 17.3901 2.17604 17.8484 2.06268 18.3435C1.94932 18.8386 1.96353 19.3544 2.10398 19.8426C2.24443 20.3307 2.50653 20.7752 2.86569 21.1343C3.22486 21.4935 3.66934 21.7556 4.15748 21.8961C4.64562 22.0365 5.16142 22.0507 5.65655 21.9374C6.15168 21.824 6.60992 21.5868 6.98832 21.2479C7.36672 20.9091 7.65288 20.4797 7.82 20H16.18C16.3471 20.4797 16.6333 20.9091 17.0117 21.2479C17.3901 21.5868 17.8483 21.824 18.3434 21.9374C18.8386 22.0507 19.3544 22.0365 19.8425 21.8961C20.3307 21.7556 20.7751 21.4935 21.1343 21.1343C21.4935 20.7752 21.7556 20.3307 21.896 19.8426C22.0365 19.3544 22.0507 18.8386 21.9373 18.3435C21.824 17.8484 21.5867 17.3901 21.2479 17.0117C20.909 16.6333 20.4797 16.3472 20 16.18ZM19 4.00004C19.1978 4.00004 19.3911 4.05869 19.5556 4.16858C19.72 4.27846 19.8482 4.43464 19.9239 4.61736C19.9996 4.80009 20.0194 5.00115 19.9808 5.19514C19.9422 5.38912 19.847 5.5673 19.7071 5.70715C19.5673 5.847 19.3891 5.94225 19.1951 5.98083C19.0011 6.01942 18.8 5.99961 18.6173 5.92392C18.4346 5.84824 18.2784 5.72006 18.1685 5.55561C18.0586 5.39117 18 5.19783 18 5.00004C18 4.73483 18.1054 4.48047 18.2929 4.29294C18.4804 4.1054 18.7348 4.00004 19 4.00004ZM5 4.00004C5.19778 4.00004 5.39112 4.05869 5.55557 4.16858C5.72002 4.27846 5.84819 4.43464 5.92388 4.61736C5.99957 4.80009 6.01937 5.00115 5.98078 5.19514C5.9422 5.38912 5.84696 5.5673 5.70711 5.70715C5.56725 5.847 5.38907 5.94225 5.19509 5.98083C5.00111 6.01942 4.80004 5.99961 4.61732 5.92392C4.43459 5.84824 4.27841 5.72006 4.16853 5.55561C4.05865 5.39117 4 5.19783 4 5.00004C4 4.73483 4.10536 4.48047 4.29289 4.29294C4.48043 4.1054 4.73478 4.00004 5 4.00004ZM5 20C4.80222 20 4.60888 19.9414 4.44443 19.8315C4.27998 19.7216 4.15181 19.5655 4.07612 19.3827C4.00043 19.2 3.98063 18.9989 4.01921 18.805C4.0578 18.611 4.15304 18.4328 4.29289 18.2929C4.43274 18.1531 4.61093 18.0578 4.80491 18.0193C4.99889 17.9807 5.19996 18.0005 5.38268 18.0762C5.56541 18.1519 5.72159 18.28 5.83147 18.4445C5.94135 18.6089 6 18.8023 6 19C6 19.2653 5.89464 19.5196 5.70711 19.7072C5.51957 19.8947 5.26522 20 5 20ZM16.18 18H7.82C7.67068 17.5806 7.42989 17.1997 7.1151 16.8849C6.8003 16.5702 6.4194 16.3294 6 16.18V7.82004C6.4194 7.67073 6.8003 7.42994 7.1151 7.11514C7.42989 6.80035 7.67068 6.41944 7.82 6.00004H16.18C16.3293 6.41944 16.5701 6.80035 16.8849 7.11514C17.1997 7.42994 17.5806 7.67073 18 7.82004V16.18C17.5806 16.3294 17.1997 16.5702 16.8849 16.8849C16.5701 17.1997 16.3293 17.5806 16.18 18ZM19 20C18.8022 20 18.6089 19.9414 18.4444 19.8315C18.28 19.7216 18.1518 19.5655 18.0761 19.3827C18.0004 19.2 17.9806 18.9989 18.0192 18.805C18.0578 18.611 18.153 18.4328 18.2929 18.2929C18.4327 18.1531 18.6109 18.0578 18.8049 18.0193C18.9989 17.9807 19.2 18.0005 19.3827 18.0762C19.5654 18.1519 19.7216 18.28 19.8315 18.4445C19.9414 18.6089 20 18.8023 20 19C20 19.2653 19.8946 19.5196 19.7071 19.7072C19.5196 19.8947 19.2652 20 19 20Z" fill="black"/>
</svg>
