<svg width="24" height="24" viewBox="0 0 24 24" fill="none" xmlns="http://www.w3.org/2000/svg">
<path d="M21.5301 7.15C21.378 7.06223 21.2056 7.01603 21.0301 7.01603C20.8545 7.01603 20.6821 7.06223 20.5301 7.15L17.0001 8.89C16.9716 8.11357 16.643 7.37847 16.0834 6.83944C15.5239 6.3004 14.777 5.99948 14.0001 6H5.00006C4.20441 6 3.44135 6.31607 2.87874 6.87868C2.31613 7.44129 2.00006 8.20435 2.00006 9V15C2.00006 15.7957 2.31613 16.5587 2.87874 17.1213C3.44135 17.6839 4.20441 18 5.00006 18H14.0001C14.777 18.0005 15.5239 17.6996 16.0834 17.1606C16.643 16.6215 16.9716 15.8864 17.0001 15.11L20.5601 16.89C20.6964 16.9599 20.8469 16.9975 21.0001 17C21.1873 17.0006 21.3709 16.9486 21.5301 16.85C21.6742 16.7599 21.793 16.6346 21.8752 16.4859C21.9574 16.3372 22.0004 16.1699 22.0001 16V8C22.0004 7.83006 21.9574 7.66283 21.8752 7.51411C21.793 7.36538 21.6742 7.24007 21.5301 7.15ZM15.0001 15C15.0001 15.2652 14.8947 15.5196 14.7072 15.7071C14.5196 15.8946 14.2653 16 14.0001 16H5.00006C4.73484 16 4.48049 15.8946 4.29295 15.7071C4.10542 15.5196 4.00006 15.2652 4.00006 15V9C4.00006 8.73478 4.10542 8.48043 4.29295 8.29289C4.48049 8.10536 4.73484 8 5.00006 8H14.0001C14.2653 8 14.5196 8.10536 14.7072 8.29289C14.8947 8.48043 15.0001 8.73478 15.0001 9V15ZM20.0001 14.38L17.0001 12.88V11.12L20.0001 9.62V14.38Z" fill="black"/>
</svg>
