<svg width="24" height="24" viewBox="0 0 24 24" fill="none" xmlns="http://www.w3.org/2000/svg">
<path d="M12 13.0001C12.5933 13.0001 13.1734 12.8241 13.6667 12.4945C14.1601 12.1648 14.5446 11.6963 14.7716 11.1481C14.9987 10.5999 15.0581 9.99675 14.9424 9.4148C14.8266 8.83286 14.5409 8.29831 14.1213 7.87875C13.7018 7.4592 13.1672 7.17347 12.5853 7.05772C12.0033 6.94196 11.4001 7.00137 10.8519 7.22843C10.3038 7.4555 9.83523 7.84001 9.50559 8.33336C9.17594 8.82671 9 9.40673 9 10.0001C9 10.7957 9.31607 11.5588 9.87868 12.1214C10.4413 12.684 11.2043 13.0001 12 13.0001ZM12 9.00007C12.1978 9.00007 12.3911 9.05872 12.5556 9.1686C12.72 9.27849 12.8482 9.43466 12.9239 9.61739C12.9996 9.80012 13.0194 10.0012 12.9808 10.1952C12.9422 10.3891 12.847 10.5673 12.7071 10.7072C12.5673 10.847 12.3891 10.9423 12.1951 10.9809C12.0011 11.0194 11.8 10.9996 11.6173 10.924C11.4346 10.8483 11.2784 10.7201 11.1685 10.5556C11.0586 10.3912 11 10.1979 11 10.0001C11 9.73486 11.1054 9.4805 11.2929 9.29297C11.4804 9.10543 11.7348 9.00007 12 9.00007ZM21.59 18.1601C21.1017 16.5406 20.2106 15.0715 19 13.8901C19.6739 12.6721 20.0183 11.2995 19.9992 9.90766C19.9802 8.51587 19.5984 7.15312 18.8914 5.95408C18.1845 4.75503 17.177 3.76118 15.9684 3.07072C14.7598 2.38026 13.3919 2.01709 12 2.01709C10.6081 2.01709 9.24023 2.38026 8.03163 3.07072C6.82302 3.76118 5.81548 4.75503 5.10856 5.95408C4.40163 7.15312 4.01978 8.51587 4.00075 9.90766C3.98171 11.2995 4.32613 12.6721 5 13.8901C3.78231 15.0675 2.8871 16.5377 2.4 18.1601C2.26983 18.605 2.24452 19.074 2.32607 19.5303C2.40761 19.9866 2.59379 20.4178 2.87 20.7901C3.15141 21.1686 3.5181 21.4754 3.94031 21.6856C4.36252 21.8959 4.82835 22.0036 5.3 22.0001H18.7C19.17 22.002 19.6338 21.8936 20.0541 21.6834C20.4745 21.4732 20.8396 21.1672 21.12 20.7901C21.3962 20.4178 21.5824 19.9866 21.6639 19.5303C21.7455 19.074 21.7202 18.605 21.59 18.1601ZM12 4.00007C13.1867 4.00007 14.3467 4.35197 15.3334 5.01126C16.3201 5.67054 17.0891 6.60762 17.5433 7.70397C17.9974 8.80033 18.1162 10.0067 17.8847 11.1706C17.6532 12.3345 17.0818 13.4036 16.2426 14.2427C15.4035 15.0818 14.3344 15.6533 13.1705 15.8848C12.0067 16.1163 10.8003 15.9975 9.7039 15.5434C8.60754 15.0892 7.67047 14.3202 7.01118 13.3335C6.35189 12.3468 6 11.1868 6 10.0001C6 8.40877 6.63214 6.88265 7.75736 5.75743C8.88257 4.63221 10.4087 4.00007 12 4.00007ZM19.52 19.5901C19.4259 19.7188 19.3024 19.8233 19.1597 19.8946C19.0171 19.9659 18.8595 20.0021 18.7 20.0001H5.3C5.14053 20.0021 4.98289 19.9659 4.84024 19.8946C4.6976 19.8233 4.57408 19.7188 4.48 19.5901C4.39008 19.4662 4.3298 19.3234 4.30379 19.1725C4.27779 19.0217 4.28675 18.8669 4.33 18.7201C4.68896 17.5113 5.33382 16.4068 6.21 15.5001C6.9571 16.2836 7.85547 16.9074 8.85071 17.3336C9.84595 17.7598 10.9173 17.9796 12 17.9796C13.0827 17.9796 14.154 17.7598 15.1493 17.3336C16.1445 16.9074 17.0429 16.2836 17.79 15.5001C18.6662 16.4068 19.311 17.5113 19.67 18.7201C19.7132 18.8669 19.7222 19.0217 19.6962 19.1725C19.6702 19.3234 19.6099 19.4662 19.52 19.5901Z" fill="black"/>
</svg>
